<svg width="20" height="20" viewBox="0 0 20 20" fill="none" xmlns="http://www.w3.org/2000/svg">
<g clip-path="url(#clip0_11164_41231)">
<path d="M0.971075 14.1199C1.12031 14.1945 1.28098 14.2461 1.44669 14.275L1.18851 14.6436C1.13633 14.7182 1.1023 14.8038 1.08887 14.8937L0.704503 17.4859C0.672002 17.7054 0.766149 17.9246 0.948034 18.0518C1.13007 18.1792 1.36811 18.1927 1.56312 18.0871L3.73399 16.9115C4.03383 17.4532 4.61122 17.821 5.273 17.821C5.72283 17.821 6.13375 17.6511 6.44487 17.3723C6.75616 17.6511 7.16708 17.821 7.61675 17.821C8.58615 17.821 9.37472 17.0324 9.37472 16.0631V15.8388C10.4647 16.3692 11.6783 16.6491 12.8904 16.6491C14.1423 16.6491 15.384 16.3619 16.4843 15.8191V17.235C16.4843 17.4381 16.5894 17.6267 16.7621 17.7335C16.9346 17.84 17.1503 17.8501 17.3322 17.7592L19.6761 16.5873C19.8746 16.4879 20.0001 16.2851 20.0001 16.0631V9.03171C20.0001 8.70807 19.7376 8.44577 19.4141 8.44577C18.4807 8.44577 16.2163 8.44577 15.3699 8.44577L11.2365 6.42321L12.8069 4.18047C12.9923 3.91558 12.928 3.54998 12.6628 3.36443L10.743 2.01997C10.4781 1.83458 10.1125 1.89882 9.92694 2.16387C9.67883 2.51818 8.09558 4.77938 7.84914 5.13125C7.36849 4.87872 6.79217 4.87994 6.42656 5.03863L4.19694 6.00726C3.87376 6.14779 3.60292 6.37912 3.41401 6.67651L0.214542 11.7089C0.00671707 12.0359 -0.0793427 12.5969 0.0894199 13.1034C0.237888 13.5488 0.551 13.9098 0.971075 14.1199ZM2.03568 16.4986L2.22794 15.2025L2.75193 14.4541C2.97654 14.782 3.28218 15.0498 3.63984 15.2292L3.18788 15.8747L2.03568 16.4986ZM5.273 16.6492C4.94997 16.6492 4.68706 16.3863 4.68706 16.0631V15.7767L4.89687 15.4772H5.85894V16.0631C5.85894 16.3863 5.59618 16.6492 5.273 16.6492ZM7.61691 16.6492C7.29372 16.6492 7.03097 16.3863 7.03097 16.0631V15.4772H8.20284V16.0631C8.20284 16.3863 7.93994 16.6492 7.61691 16.6492ZM18.8282 15.701L17.6561 16.287V9.61765H18.8282V15.701ZM14.9767 9.55799C15.057 9.5972 15.145 9.61765 15.2343 9.61765H16.4843V14.5212C16.0894 14.6747 14.8632 15.4772 12.8905 15.4772C10.7993 15.4772 9.51129 14.551 9.05078 14.3671C8.96716 14.3253 8.875 14.3053 8.78878 14.3053H4.68706C4.08784 14.3053 3.59254 13.8532 3.52372 13.2721C3.54204 13.1871 3.54036 13.0999 3.52098 13.0164C3.57988 12.425 4.08037 11.9616 4.68706 11.9616H8.3034C9.52853 11.9616 10.6806 11.4844 11.547 10.618C11.7757 10.3891 11.7757 10.0182 11.547 9.78931C11.3181 9.56043 10.9471 9.56043 10.7183 9.78931C10.0731 10.4343 9.21557 10.7897 8.3034 10.7897H8.17919L10.5559 7.3952L14.9767 9.55799ZM9.20642 5.23608L10.1664 5.90838L6.74853 10.7897H5.31786C5.81606 10.0782 8.74942 5.88885 9.20642 5.23608ZM10.5507 3.31621L11.5108 3.98836L10.8385 4.94845L9.87857 4.27614L10.5507 3.31621ZM1.22239 12.3079L4.40294 7.30533C4.46596 7.20615 4.55629 7.12909 4.66402 7.08224L6.86571 6.12567C6.96352 6.09698 7.06438 6.095 7.1596 6.11621L3.74986 10.9858C3.02919 11.3015 2.49665 11.9692 2.37153 12.7706C2.26441 13.0715 1.79887 13.2235 1.49522 13.0716C1.20942 12.9288 1.09589 12.5896 1.22239 12.3079Z" fill="black"/>
</g>
<defs>
<clipPath id="clip0_11164_41231">
<rect width="20" height="20" fill="white"/>
</clipPath>
</defs>
</svg>
