<svg width="20" height="20" viewBox="0 0 20 20" fill="none" xmlns="http://www.w3.org/2000/svg">
<mask id="mask0_11164_41237" style="mask-type:luminance" maskUnits="userSpaceOnUse" x="1" y="1" width="18" height="18">
<path d="M1.01562 1.01562H18.9844V18.9844H1.01562V1.01562Z" fill="white"/>
</mask>
<g mask="url(#mask0_11164_41237)">
<path fill-rule="evenodd" clip-rule="evenodd" d="M4.4856 17.6182C3.32319 17.6182 2.38086 16.6758 2.38086 15.5134V7.90298H17.6256V15.5134C17.6256 16.6758 16.6833 17.6182 15.5209 17.6182H4.4856ZM18.9538 15.5134C18.9538 17.4093 17.4168 18.9463 15.5209 18.9463H4.4856C2.58967 18.9463 1.05273 17.4093 1.05273 15.5134V5.86652C1.05273 3.97061 2.58967 2.43362 4.4856 2.43362H5.19397V1.71729C5.19397 1.35053 5.49128 1.05322 5.85803 1.05322C6.22478 1.05322 6.52209 1.35053 6.52209 1.71729V2.43362H13.4844V1.71729C13.4844 1.35053 13.7817 1.05322 14.1485 1.05322C14.5152 1.05322 14.8125 1.35053 14.8125 1.71729V2.43362H15.5209C17.4168 2.43362 18.9538 3.97061 18.9538 5.86652V15.5134ZM17.6256 6.57486H2.38086V5.86652C2.38086 4.70409 3.32319 3.76175 4.4856 3.76175H5.19397V5.1683C5.19397 5.53505 5.49128 5.83237 5.85803 5.83237C6.22478 5.83237 6.52209 5.53505 6.52209 5.1683V3.76175H13.4844V5.1683C13.4844 5.53505 13.7817 5.83237 14.1485 5.83237C14.5152 5.83237 14.8125 5.53505 14.8125 5.1683V3.76175H15.5209C16.6833 3.76175 17.6256 4.70409 17.6256 5.86652V6.57486ZM4.50375 14.8429C4.50375 15.2096 4.80106 15.507 5.16781 15.507H6.54821C6.91497 15.507 7.21228 15.2096 7.21228 14.8429C7.21228 14.4761 6.91497 14.1788 6.54821 14.1788H5.16781C4.80106 14.1788 4.50375 14.4761 4.50375 14.8429ZM8.64499 14.8429C8.64499 15.2096 8.9423 15.507 9.30905 15.507H10.6894C11.0562 15.507 11.3535 15.2096 11.3535 14.8429C11.3535 14.4761 11.0562 14.1788 10.6894 14.1788H9.30905C8.9423 14.1788 8.64499 14.4761 8.64499 14.8429ZM12.7942 14.8429C12.7942 15.2096 13.0915 15.507 13.4583 15.507H14.8387C15.2054 15.507 15.5027 15.2096 15.5027 14.8429C15.5027 14.4761 15.2054 14.1788 14.8387 14.1788H13.4583C13.0915 14.1788 12.7942 14.4761 12.7942 14.8429ZM4.50375 10.7017C4.50375 11.0684 4.80106 11.3657 5.16781 11.3657H6.54821C6.91497 11.3657 7.21228 11.0684 7.21228 10.7017C7.21228 10.3349 6.91497 10.0376 6.54821 10.0376H5.16781C4.80106 10.0376 4.50375 10.3349 4.50375 10.7017ZM8.64499 10.7017C8.64499 11.0684 8.9423 11.3657 9.30905 11.3657H10.6894C11.0562 11.3657 11.3535 11.0684 11.3535 10.7017C11.3535 10.3349 11.0562 10.0376 10.6894 10.0376H9.30905C8.9423 10.0376 8.64499 10.3349 8.64499 10.7017ZM12.7942 10.7017C12.7942 11.0684 13.0915 11.3657 13.4583 11.3657H14.8387C15.2054 11.3657 15.5027 11.0684 15.5027 10.7017C15.5027 10.3349 15.2054 10.0376 14.8387 10.0376H13.4583C13.0915 10.0376 12.7942 10.3349 12.7942 10.7017Z" fill="black"/>
</g>
</svg>
